<svg width="18" height="16" viewBox="0 0 18 16" fill="none" xmlns="http://www.w3.org/2000/svg">
<path d="M8.52456 16C13.8524 16 17.0491 12.8 17.0491 8C17.0491 3.2 13.8524 0 8.52456 0C3.19671 0 0 3.2 0 8C0 12.8 3.19671 16 8.52456 16Z" fill="#E63E39"/>
<path d="M4.67657 12.6223C6.63012 12.6223 7.81409 10.7261 7.81409 7.88161C7.81409 5.03717 6.63012 3.14087 4.67657 3.14087C2.72303 3.14087 1.53906 5.03717 1.53906 7.88161C1.53906 10.7853 2.72303 12.6223 4.67657 12.6223Z" fill="white"/>
<path d="M12.3133 12.6223C14.2669 12.6223 15.4509 10.7261 15.4509 7.88161C15.4509 5.03717 14.2669 3.14087 12.3133 3.14087C10.3598 3.14087 9.17583 5.03717 9.17583 7.88161C9.11663 10.7261 10.3006 12.6223 12.3133 12.6223Z" fill="white"/>
<path d="M4.85424 9.71842C5.74222 9.71842 5.68302 10.7258 6.15661 10.311C6.57099 9.8962 5.74222 9.00732 4.85424 9.00732C3.96627 9.00732 3.13749 9.83694 3.55188 10.311C3.96626 10.7258 3.90707 9.71842 4.85424 9.71842Z" fill="#E63E39"/>
<path d="M12.1949 9.71842C13.0829 9.71842 13.0237 10.7258 13.4973 10.311C13.9709 9.8962 13.0829 9.00732 12.1949 9.00732C11.307 9.00732 10.4782 9.83694 10.8926 10.311C11.3662 10.7258 11.307 9.71842 12.1949 9.71842Z" fill="#E63E39"/>
</svg>